<svg width="137" height="137" viewBox="0 0 137 137" fill="none" xmlns="http://www.w3.org/2000/svg">
<path fill-rule="evenodd" clip-rule="evenodd" d="M43.7611 125.583H93.2331C112.586 125.583 125.583 112.008 125.583 91.8086V45.1911C125.583 24.9916 112.586 11.4165 93.2388 11.4165H43.7611C24.4139 11.4165 11.4166 24.9916 11.4166 45.1911V91.8086C11.4166 112.008 24.4139 125.583 43.7611 125.583ZM48.5143 62.7915C40.6445 62.7915 34.25 56.3883 34.25 48.5207C34.25 40.653 40.6445 34.2498 48.5143 34.2498C56.3783 34.2498 62.7786 40.653 62.7786 48.5207C62.7786 56.3883 56.3783 62.7915 48.5143 62.7915ZM113.144 85.2478C115.055 90.1491 114.062 96.04 112.019 100.894C109.596 106.667 104.958 111.038 99.1148 112.947C96.5202 113.795 93.7994 114.167 91.0843 114.167H42.976C38.1887 114.167 33.9524 113.018 30.4796 110.879C28.3041 109.536 27.9195 106.438 29.5325 104.429C32.2304 101.071 34.8938 97.7013 37.5802 94.3022C42.7004 87.7986 46.1503 85.9135 49.9847 87.5688C51.5403 88.2522 53.1016 89.2772 54.7089 90.3612C58.991 93.2713 64.9436 97.2713 72.7847 92.9296C78.1505 89.9243 81.2627 84.7693 83.9728 80.2803L84.0182 80.2052C84.2098 79.891 84.3997 79.5768 84.589 79.2634L84.5903 79.2613C85.5011 77.7542 86.3998 76.2673 87.4164 74.8974C88.6907 73.1831 93.4148 67.8224 99.5338 71.6397C103.431 74.0432 106.709 77.295 110.216 80.7766C111.554 82.1079 112.507 83.6219 113.144 85.2478Z" fill="#121212"/>
</svg>
